HIERARCHY
ROOT Hips
{
 OFFSET 0.000000 0.000000 0.000000
 CHANNELS 6 Xposition Yposition Zposition Yrotation Xrotation Zrotation
 JOINT Chest
 {
  OFFSET 0.000000 13.173100 -0.061900
  CHANNELS 3 Yrotation Xrotation Zrotation
  JOINT Chest2
  {
   OFFSET 0.000000 8.040800 0.126200
   CHANNELS 3 Yrotation Xrotation Zrotation
   JOINT Chest3
   {
    OFFSET 0.000000 7.994400 0.000000
    CHANNELS 3 Yrotation Xrotation Zrotation
    JOINT Chest4
    {
     OFFSET 0.000000 7.986200 0.000000
     CHANNELS 3 Yrotation Xrotation Zrotation
     JOINT Neck
     {
      OFFSET 0.000000 12.259400 0.000000
      CHANNELS 3 Yrotation Xrotation Zrotation
      JOINT Head
      {
       OFFSET 0.000000 7.518700 0.267100
       CHANNELS 3 Yrotation Xrotation Zrotation
       End Site
       {
        OFFSET 0.000000 13.617700 0.141000
       }
      }
     }
     JOINT RightCollar
     {
      OFFSET -2.983800 8.314300 0.000000
      CHANNELS 3 Yrotation Xrotation Zrotation
      JOINT RightShoulder
      {
       OFFSET -16.133400 0.000000 0.000000
       CHANNELS 3 Yrotation Xrotation Zrotation
       JOINT RightElbow
       {
        OFFSET 0.000000 -29.822100 0.000000
        CHANNELS 3 Yrotation Xrotation Zrotation
        JOINT RightWrist
        {
         OFFSET 0.000000 -24.437700 0.010900
         CHANNELS 3 Yrotation Xrotation Zrotation
         End Site
         {
          OFFSET 0.000000 -18.312300 0.000000
         }
        }
       }
      }
     }
     JOINT LeftCollar
     {
      OFFSET 2.983800 8.314300 0.000000
      CHANNELS 3 Yrotation Xrotation Zrotation
      JOINT LeftShoulder
      {
       OFFSET 16.133400 0.000000 0.000000
       CHANNELS 3 Yrotation Xrotation Zrotation
       JOINT LeftElbow
       {
        OFFSET 0.000000 -29.822100 0.000000
        CHANNELS 3 Yrotation Xrotation Zrotation
        JOINT LeftWrist
        {
         OFFSET 0.000000 -24.437700 0.010900
         CHANNELS 3 Yrotation Xrotation Zrotation
         End Site
         {
          OFFSET 0.000000 -18.312300 0.000000
         }
        }
       }
      }
     }
    }
   }
  }
 }
 JOINT RightHip
 {
  OFFSET -11.206700 0.306200 0.030900
  CHANNELS 3 Yrotation Xrotation Zrotation
  JOINT RightKnee
  {
   OFFSET 0.000000 -57.334900 0.009400
   CHANNELS 3 Yrotation Xrotation Zrotation
   JOINT RightAnkle
   {
    OFFSET 0.000000 -43.376200 0.036600
    CHANNELS 3 Yrotation Xrotation Zrotation
    JOINT RightToe
    {
     OFFSET 0.000000 -10.035500 18.363100
     CHANNELS 3 Yrotation Xrotation Zrotation
     End Site
     {
      OFFSET 0.000000 -1.618500 7.239000
     }
    }
   }
  }
 }
 JOINT LeftHip
 {
  OFFSET 11.206700 0.306200 0.030900
  CHANNELS 3 Yrotation Xrotation Zrotation
  JOINT LeftKnee
  {
   OFFSET 0.000000 -57.334900 0.009400
   CHANNELS 3 Yrotation Xrotation Zrotation
   JOINT LeftAnkle
   {
    OFFSET 0.000000 -43.376200 0.036600
    CHANNELS 3 Yrotation Xrotation Zrotation
    JOINT LeftToe
    {
     OFFSET 0.000000 -10.035500 18.363100
     CHANNELS 3 Yrotation Xrotation Zrotation
     End Site
     {
      OFFSET 0.000000 -1.618500 7.239000
     }
    }
   }
  }
 }
}
MOTION
Frames: 16
Frame Time: 0.008333
-96.561781 64.700126 88.317784 174.214581 -37.356122 -2.475424 1.758243 20.210255 1.783008 0.185916 2.576267 0.360942 0.313208 4.218845 0.595997 1.616440 17.351426 2.671678 3.753989 18.508070 -1.436431 7.346673 -1.247725 -3.834605 -3.944486 0.616379 -2.897549 -3.887694 -4.570518 4.817831 -159.530633 -86.907270 167.862412 0.124868 -3.032725 -3.060029 -4.394573 0.811631 0.083394 6.711878 -12.470636 1.692061 -160.264442 -65.120947 150.047591 -9.593011 -28.043482 28.614148 -2.172358 -44.227883 1.718812 -114.324485 85.464817 -109.978976 -0.618375 -8.851792 -1.531274 0.563290 -0.789716 0.291378 -3.337005 -40.442043 3.628376 74.498720 83.209108 64.190252 -5.586936 -13.415721 8.102320 0.379593 1.247594 0.249272
-96.555991 64.684189 88.321292 174.222697 -37.396746 -2.474051 1.757244 20.258948 1.798504 0.192756 2.602552 0.385657 0.314203 4.243986 0.605552 1.620225 17.393782 2.703363 3.797249 18.608985 -1.507476 7.443065 -1.052417 -3.971696 -3.947376 0.737428 -2.913741 -3.866510 -4.687513 4.836958 -159.760076 -86.872528 168.061186 0.155885 -2.982577 -2.997706 -4.470363 0.908968 0.071563 6.550858 -12.836344 1.693134 -159.767836 -64.949543 149.648488 -9.707692 -28.466640 28.725297 -2.143163 -44.193283 1.695170 -114.470799 85.476365 -110.098831 -0.633401 -8.847163 -1.538994 0.565317 -0.797529 0.294867 -3.327423 -40.402242 3.632437 74.443141 83.222999 64.122919 -5.598256 -13.410634 8.110219 0.387459 1.241994 0.249644
-96.552774 64.667927 88.325252 174.229823 -37.438439 -2.469439 1.755415 20.309976 1.810706 0.202568 2.633577 0.410080 0.315815 4.272139 0.615523 1.626136 17.441200 2.736044 3.829803 18.698367 -1.578775 7.520262 -0.879027 -4.106553 -3.951648 0.832287 -2.917139 -3.839499 -4.782553 4.840677 -159.700982 -86.840960 167.975933 0.185457 -2.940691 -2.959229 -4.550784 1.003264 0.072485 6.387029 -13.187212 1.681924 -159.161572 -64.853367 149.155218 -9.815667 -28.909737 28.822425 -2.127913 -44.153018 1.663976 -114.565642 85.485234 -110.178203 -0.605320 -8.853781 -1.533968 0.538082 -0.793592 0.280115 -3.316182 -40.361766 3.627876 74.391018 83.230145 64.058254 -5.601697 -13.405220 8.118694 0.386972 1.237860 0.248290
-96.552593 64.652183 88.328713 174.243047 -37.485851 -2.464229 1.757428 20.380205 1.841147 0.205811 2.655951 0.413508 0.317824 4.301920 0.625359 1.633341 17.491188 2.767871 3.852499 18.778955 -1.646530 7.578572 -0.722875 -4.232266 -3.957442 0.925680 -2.916118 -3.811434 -4.878483 4.842243 -159.280779 -86.816893 167.540913 0.209558 -2.913091 -2.960860 -4.636247 1.105062 0.086086 6.213073 -13.529593 1.660458 -158.433887 -64.833368 148.546805 -9.931108 -29.355197 28.925530 -2.124977 -44.106926 1.641264 -114.593178 85.477007 -110.201622 -0.586835 -8.865402 -1.530197 0.528754 -0.787824 0.273034 -3.309210 -40.315366 3.612494 74.347292 83.230094 64.001398 -5.599927 -13.402065 8.130525 0.377107 1.237181 0.241037
-96.552472 64.636147 88.333442 174.257551 -37.531773 -2.468617 1.763046 20.451053 1.878051 0.199700 2.654746 0.399061 0.334874 4.360276 0.655347 1.642680 17.543741 2.799402 3.863838 18.848761 -1.707404 7.614495 -0.587927 -4.342345 -3.971457 1.024895 -2.920307 -3.776524 -4.985210 4.852428 -158.512193 -86.803021 166.771284 0.226752 -2.902493 -3.015053 -4.727957 1.215726 0.108445 6.012300 -13.870196 1.628961 -157.571688 -64.894398 147.815048 -10.055793 -29.778442 29.031579 -2.134039 -44.061539 1.630394 -114.590696 85.471604 -110.191892 -0.572560 -8.873652 -1.533751 0.523131 -0.783212 0.269245 -3.303366 -40.272503 3.608756 74.303922 83.237208 63.952184 -5.611828 -13.398399 8.139736 0.384710 1.234199 0.234572
-96.553093 64.620233 88.338917 174.275177 -37.578909 -2.479012 1.805697 20.563354 1.967641 0.159299 2.613828 0.349237 0.359381 4.425814 0.687562 1.655306 17.600436 2.832793 3.864118 18.905448 -1.761975 7.628886 -0.478453 -4.438315 -3.998226 1.123142 -2.929985 -3.725889 -5.100185 4.864970 -157.463576 -86.795999 165.722184 0.233898 -2.908288 -3.113660 -4.827300 1.332863 0.136520 5.764116 -14.219384 1.585351 -156.555882 -65.051858 146.967989 -10.161610 -30.161516 29.098221 -2.154170 -44.013449 1.627635 -114.472988 85.448307 -110.069585 -0.540242 -8.881716 -1.541183 0.518320 -0.777816 0.268566 -3.301932 -40.230111 3.605328 74.284796 83.237505 63.932999 -5.623759 -13.394751 8.144224 0.391397 1.233162 0.231363
-96.554205 64.605066 88.344435 174.298026 -37.631737 -2.495354 1.828964 20.652613 2.022166 0.153781 2.634272 0.354218 0.372197 4.466241 0.700520 1.672172 17.661378 2.868245 3.855925 18.948262 -1.811296 7.626810 -0.395792 -4.523036 -4.036699 1.220029 -2.941698 -3.655658 -5.221652 4.868863 -156.206865 -86.790530 164.455379 0.234452 -2.924530 -3.244722 -4.936046 1.459361 0.168234 5.464244 -14.583814 1.528902 -155.408599 -65.321685 146.027125 -10.234263 -30.480606 29.103612 -2.185121 -43.957514 1.631238 -114.400886 85.439852 -110.000058 -0.515573 -8.891450 -1.545252 0.504769 -0.771087 0.267442 -3.299605 -40.181818 3.597442 74.271368 83.235083 63.927413 -5.626770 -13.398572 8.132218 0.393107 1.237965 0.241699
-96.556078 64.591299 88.349073 174.308293 -37.696289 -2.502778 1.844848 20.735520 2.051484 0.176104 2.676890 0.379843 0.377599 4.508143 0.711767 1.694243 17.726027 2.904981 3.842020 18.978335 -1.856387 7.613654 -0.337461 -4.599096 -4.085576 1.317095 -2.953839 -3.565472 -5.348017 4.861920 -154.904186 -86.784577 163.139892 0.235612 -2.945434 -3.402344 -5.053192 1.595020 0.202293 5.122072 -14.963686 1.460284 -154.204057 -65.707978 145.017871 -10.298304 -30.685529 29.082906 -2.206322 -43.891899 1.634500 -114.375535 85.439638 -109.980739 -0.502228 -8.899268 -1.541871 0.494138 -0.766233 0.260652 -3.286220 -40.122908 3.585730 74.272962 83.234488 63.938998 -5.631630 -13.397256 8.129290 0.400648 1.237206 0.243286
-96.560187 64.576499 88.355621 174.322689 -37.756110 -2.504144 1.882385 20.842596 2.105462 0.201456 2.741557 0.411757 0.352082 4.502177 0.690698 1.720342 17.793149 2.942045 3.824200 18.999797 -1.897945 7.592641 -0.295656 -4.667996 -4.142050 1.418277 -2.962398 -3.454838 -5.477864 4.846271 -153.769474 -86.778079 161.987997 0.242555 -2.970305 -3.572216 -5.175076 1.737300 0.240550 4.755442 -15.356327 1.380998 -152.978657 -66.213280 143.954047 -10.352653 -30.752197 29.045211 -2.220913 -43.831189 1.628499 -114.339461 85.438872 -109.950540 -0.502122 -8.913945 -1.539790 0.496052 -0.754577 0.257719 -3.265575 -40.067535 3.562508 74.243976 83.225924 63.916257 -5.644876 -13.395213 8.133636 0.401527 1.244032 0.246562
-96.564253 64.560341 88.364706 174.333743 -37.809776 -2.503183 1.922452 20.941501 2.153070 0.206976 2.775548 0.420832 0.348588 4.527258 0.692461 1.747239 17.861072 2.977457 3.801991 19.019550 -1.935139 7.562307 -0.257705 -4.727642 -4.200370 1.524290 -2.961210 -3.326958 -5.604996 4.824152 -152.990936 -86.774008 161.176811 0.256006 -2.994057 -3.733327 -5.298665 1.880432 0.285555 4.392197 -15.748524 1.296302 -151.723094 -66.838004 142.840416 -10.368244 -30.699747 28.962390 -2.232409 -43.784708 1.628391 -114.324961 85.432092 -109.946895 -0.506939 -8.912342 -1.538161 0.501439 -0.755288 0.260748 -3.242308 -40.020100 3.538842 74.207962 83.220523 63.885943 -5.646635 -13.395563 8.133760 0.400938 1.247728 0.248056
-96.570917 64.541726 88.377117 174.374685 -37.849858 -2.508144 1.904528 20.999796 2.152948 0.230990 2.815247 0.437992 0.355630 4.568684 0.703487 1.772630 17.927815 3.010360 3.775388 19.043421 -1.965904 7.521774 -0.212866 -4.773995 -4.259604 1.631032 -2.947391 -3.187999 -5.720249 4.797720 -152.670675 -86.774378 160.813739 0.273601 -3.010709 -3.874713 -5.424288 2.020994 0.334950 4.062205 -16.124125 1.216256 -150.478631 -67.576503 141.700490 -10.348326 -30.542208 28.836637 -2.240933 -43.748553 1.600493 -114.315974 85.431811 -109.939744 -0.514398 -8.920211 -1.534205 0.505841 -0.744918 0.261922 -3.236043 -39.987287 3.506409 74.098286 83.205833 63.776504 -5.668582 -13.383481 8.130902 0.397538 1.255157 0.257075
-96.569470 64.527446 88.385839 174.399385 -37.923515 -2.533660 1.913897 21.088702 2.185708 0.256116 2.843928 0.452280 0.362012 4.607721 0.713796 1.795384 17.990451 3.040642 3.747032 19.072278 -1.988678 7.475272 -0.159645 -4.804954 -4.321519 1.741857 -2.922236 -3.043897 -5.819504 4.767967 -152.737891 -86.775722 160.840177 0.295923 -3.019260 -3.991560 -5.554341 2.166296 0.380363 3.781772 -16.472435 1.157374 -149.334024 -68.418959 140.595986 -10.309363 -30.288044 28.689335 -2.259884 -43.678040 1.618149 -114.246114 85.433354 -109.883110 -0.506556 -8.906905 -1.508817 0.485568 -0.750181 0.251413 -3.223918 -39.925743 3.508411 74.080421 83.214325 63.775349 -5.682903 -13.369404 8.126507 0.405278 1.245601 0.264982
-96.572041 64.509206 88.399538 174.416933 -37.973801 -2.537017 1.943331 21.158774 2.212861 0.259729 2.851683 0.457228 0.356111 4.631750 0.717202 1.827116 18.058327 3.072630 3.719172 19.100651 -2.002951 7.427109 -0.108021 -4.820554 -4.387378 1.861070 -2.886995 -2.902501 -5.903628 4.737951 -153.044199 -86.776400 161.116849 0.321081 -3.019993 -4.075391 -5.687076 2.324765 0.419635 3.539697 -16.785134 1.134319 -148.355381 -69.346202 139.607596 -10.258240 -29.962372 28.539103 -2.242062 -43.640159 1.606220 -114.271006 85.432762 -109.907347 -0.523945 -8.898769 -1.493649 0.486793 -0.753032 0.253541 -3.208683 -39.885425 3.495885 74.033434 83.213733 63.730788 -5.702433 -13.364398 8.128248 0.423728 1.249637 0.269765
-96.575894 64.495506 88.408000 174.457195 -38.056948 -2.545620 1.993406 21.236840 2.259364 0.220827 2.871442 0.445018 0.327769 4.631303 0.708547 1.877335 18.141967 3.111489 3.692141 19.120190 -2.009803 7.378702 -0.073243 -4.823355 -4.456976 1.983860 -2.842901 -2.775008 -5.975781 4.710791 -153.493897 -86.778183 161.558432 0.353055 -3.019122 -4.124822 -5.818256 2.496625 0.454756 3.313368 -17.059399 1.148336 -147.552376 -70.330370 138.788536 -10.193996 -29.606214 28.395869 -2.199272 -43.575389 1.572028 -114.342156 85.408704 -109.957580 -0.566709 -8.865703 -1.491267 0.533726 -0.791483 0.278113 -3.200465 -39.810407 3.470523 73.977512 83.210536 63.674011 -5.723289 -13.351341 8.129550 0.446381 1.236477 0.270261
-96.578205 64.482625 88.416909 174.504777 -38.143202 -2.566540 1.976572 21.319972 2.265969 0.235662 2.887461 0.453773 0.339237 4.664690 0.718981 1.873428 18.186938 3.129028 3.665133 19.124792 -2.012018 7.329808 -0.066502 -4.818733 -4.525339 2.102107 -2.794384 -2.666569 -6.041622 4.687178 -154.110984 -86.787691 162.192611 0.392885 -3.028623 -4.148117 -5.943843 2.674667 0.480522 3.090576 -17.293640 1.192428 -146.915538 -71.332587 138.156376 -10.122576 -29.251191 28.276030 -2.197619 -43.495653 1.553700 -114.367668 85.401937 -109.977154 -0.579920 -8.853939 -1.482828 0.543824 -0.803848 0.283163 -3.200818 -39.732099 3.453169 73.917394 83.208961 63.615225 -5.739722 -13.341852 8.132511 0.453659 1.237182 0.278038
-96.576764 64.468537 88.429734 174.528608 -38.214880 -2.593562 1.984913 21.386138 2.293508 0.232275 2.898688 0.454996 0.363984 4.697906 0.734168 1.854164 18.239112 3.144085 3.637580 19.112850 -2.013769 7.280708 -0.090435 -4.814305 -4.589168 2.211763 -2.747064 -2.573722 -6.107412 4.667943 -155.397761 -86.741271 163.482799 0.422561 -2.980358 -4.119491 -6.056647 2.853256 0.493454 2.870788 -17.491304 1.253147 -146.421065 -72.298345 137.687494 -10.063932 -28.908200 28.212160 -2.210948 -43.427215 1.571811 -114.310732 85.417528 -109.933178 -0.575233 -8.841984 -1.463012 0.512799 -0.802208 0.279626 -3.198204 -39.669995 3.461971 73.878720 83.214708 63.586082 -5.753291 -13.340381 8.135487 0.459679 1.239105 0.279695
